<?xml version="1.0" standalone="no"?>
<!DOCTYPE svg PUBLIC "-//W3C//DTD SVG 20010904//EN"
 "http://www.w3.org/TR/2001/REC-SVG-20010904/DTD/svg10.dtd">
<svg version="1.0" xmlns="http://www.w3.org/2000/svg"
 width="500.000000pt" height="500.000000pt" viewBox="0 0 500.000000 500.000000"
 preserveAspectRatio="xMidYMid meet">
<metadata>
Created by potrace 1.14, written by Peter Selinger 2001-2017
</metadata>
<g transform="translate(0.000000,500.000000) scale(0.100000,-0.100000)"
fill="#000000" stroke="none">
<path d="M2195 3601 c-11 -5 -22 -7 -25 -6 -14 8 -88 -56 -115 -100 -25 -40
-30 -59 -30 -110 0 -53 5 -70 33 -116 51 -82 176 -248 187 -248 6 0 26 22 45
49 19 27 38 50 43 50 4 0 7 7 7 15 0 8 3 15 8 15 4 0 18 18 32 40 14 22 28 40
31 40 14 0 59 120 59 156 0 49 -38 131 -76 164 -56 49 -146 72 -199 51z m110
-157 c52 -56 18 -144 -55 -144 -57 0 -85 27 -85 83 0 35 5 50 24 66 35 30 86
28 116 -5z"/>
<path d="M4560 3591 c-80 -25 -136 -82 -156 -160 -24 -95 -4 -141 145 -336 60
-79 71 -90 80 -79 44 47 192 261 201 290 55 166 -105 335 -270 285z m140 -186
c27 -83 -65 -148 -133 -95 -61 48 -38 130 43 153 28 8 79 -25 90 -58z"/>
<path d="M232 2972 l-22 -3 2 -467 3 -467 394 0 394 0 0 105 c-1 58 -2 112 -2
121 -1 14 -29 16 -233 17 -128 0 -239 1 -245 1 -9 1 -13 18 -13 50 0 30 5 50
13 53 6 2 117 3 245 3 158 -1 232 2 233 9 1 13 1 207 0 221 -1 7 -84 10 -233
9 -128 0 -239 2 -245 4 -8 3 -13 23 -13 53 l0 49 248 0 247 0 -1 116 c-1 63
-4 117 -7 120 -6 6 -727 11 -765 6z"/>
<path d="M2586 2970 l-70 -5 1 -456 c0 -251 2 -460 6 -465 4 -7 263 -11 297
-5 3 1 5 70 5 154 l0 152 185 6 c216 6 257 17 325 85 65 65 88 136 82 244 -7
114 -38 175 -117 232 -60 43 -116 56 -261 58 -74 1 -190 2 -259 3 -69 1 -156
0 -194 -3z m480 -246 c51 -13 56 -101 8 -123 -27 -12 -243 -16 -245 -3 -4 24
-5 109 -1 120 4 13 195 18 238 6z"/>
<path d="M3770 2969 c-92 -7 -122 -14 -160 -37 -46 -28 -72 -56 -98 -107 -24
-44 -27 -61 -27 -145 0 -80 4 -102 23 -140 41 -78 102 -129 178 -146 16 -3
102 -7 191 -8 177 -3 193 -8 193 -57 0 -48 -19 -52 -308 -53 l-265 -1 2 -113
c0 -63 3 -117 5 -121 3 -3 148 -6 323 -6 l318 1 57 26 c63 29 112 78 143 142
15 31 19 62 19 131 0 104 -19 158 -77 215 -60 60 -115 73 -310 75 -162 2 -171
3 -188 24 -10 12 -15 30 -12 39 14 40 28 42 292 42 l256 0 -1 115 c0 63 -3
117 -6 120 -8 9 -446 11 -548 4z"/>
<path d="M1265 2952 c-109 -36 -175 -142 -175 -276 1 -116 47 -203 132 -251
65 -35 71 -37 248 -39 85 -2 165 -6 177 -10 44 -14 41 -81 -4 -93 -15 -3 -141
-6 -280 -6 -139 0 -253 -3 -254 -6 -6 -48 -2 -225 6 -230 6 -4 152 -7 325 -6
293 2 318 4 361 23 111 49 169 136 173 260 6 159 -68 267 -204 297 -19 5 -100
9 -180 11 -80 1 -152 2 -160 3 -43 4 -61 50 -31 80 20 20 32 21 276 21 l255 0
1 40 c0 22 0 69 0 105 0 36 0 72 0 80 -1 23 -594 21 -666 -3z"/>
<path d="M2078 2963 c-2 -5 -4 -215 -3 -467 l0 -460 153 0 c128 -1 152 1 153
14 1 8 2 219 3 467 l1 453 -152 0 c-83 0 -153 -3 -155 -7z"/>
<path d="M4469 2698 c-1 -544 -1 -647 4 -655 4 -6 268 -9 297 -4 4 1 5 898 1
924 0 4 -68 7 -151 7 l-150 0 -1 -272z"/>
</g>
</svg>
